<svg width="24" height="25" viewBox="0 0 24 25" fill="none" xmlns="http://www.w3.org/2000/svg">
<path d="M17 2.64734H7C4.23858 2.64734 2 4.88592 2 7.64734V17.6473C2 20.4088 4.23858 22.6473 7 22.6473H17C19.7614 22.6473 22 20.4088 22 17.6473V7.64734C22 4.88592 19.7614 2.64734 17 2.64734Z" stroke="white" stroke-width="2" stroke-linecap="round" stroke-linejoin="round"/>
<path d="M16 12.0173C16.1234 12.8496 15.9813 13.6996 15.5938 14.4464C15.2063 15.1931 14.5931 15.7987 13.8416 16.177C13.0901 16.5553 12.2384 16.6869 11.4078 16.5533C10.5771 16.4196 9.80976 16.0274 9.21484 15.4325C8.61992 14.8376 8.22773 14.0702 8.09407 13.2395C7.9604 12.4089 8.09207 11.5572 8.47033 10.8057C8.84859 10.0542 9.45419 9.44108 10.201 9.05358C10.9478 8.66608 11.7978 8.52392 12.63 8.64734C13.4789 8.77322 14.2649 9.1688 14.8717 9.77564C15.4785 10.3825 15.8741 11.1684 16 12.0173Z" stroke="white" stroke-width="2" stroke-linecap="round" stroke-linejoin="round"/>
<path d="M17.5 7.14734H17.51" stroke="white" stroke-width="2" stroke-linecap="round" stroke-linejoin="round"/>
</svg>
