<svg width="24" height="25" viewBox="0 0 24 25" fill="none" xmlns="http://www.w3.org/2000/svg">
<path d="M16 8.64734C17.5913 8.64734 19.1174 9.27948 20.2426 10.4047C21.3679 11.5299 22 13.056 22 14.6473V21.6473H18V14.6473C18 14.1169 17.7893 13.6082 17.4142 13.2331C17.0391 12.8581 16.5304 12.6473 16 12.6473C15.4696 12.6473 14.9609 12.8581 14.5858 13.2331C14.2107 13.6082 14 14.1169 14 14.6473V21.6473H10V14.6473C10 13.056 10.6321 11.5299 11.7574 10.4047C12.8826 9.27948 14.4087 8.64734 16 8.64734Z" stroke="white" stroke-width="2" stroke-linecap="round" stroke-linejoin="round"/>
<path d="M6 9.64734H2V21.6473H6V9.64734Z" stroke="white" stroke-width="2" stroke-linecap="round" stroke-linejoin="round"/>
<path d="M4 6.64734C5.10457 6.64734 6 5.75191 6 4.64734C6 3.54277 5.10457 2.64734 4 2.64734C2.89543 2.64734 2 3.54277 2 4.64734C2 5.75191 2.89543 6.64734 4 6.64734Z" stroke="white" stroke-width="2" stroke-linecap="round" stroke-linejoin="round"/>
</svg>
