<svg width="1290" height="1290" viewBox="0 0 1290 1290" fill="none" xmlns="http://www.w3.org/2000/svg">
<path d="M1117.01 172.934C1111.57 167.519 1104.7 163.77 1097.2 162.127C1089.7 160.485 1081.89 161.018 1074.68 163.662L187.848 486.148C180.199 489.049 173.615 494.208 168.968 500.94C164.322 507.672 161.833 515.659 161.833 523.839C161.833 532.019 164.322 540.005 168.968 546.737C173.615 553.469 180.199 558.628 187.848 561.529L534.117 699.795L789.687 443.419L846.525 500.257L589.746 757.036L728.415 1103.31C731.402 1110.81 736.572 1117.24 743.256 1121.76C749.941 1126.29 757.83 1128.71 765.904 1128.7C774.05 1128.53 781.954 1125.9 788.575 1121.15C795.195 1116.4 800.221 1109.76 802.99 1102.1L1125.48 215.26C1128.22 208.128 1128.88 200.362 1127.39 192.868C1125.89 185.374 1122.29 178.461 1117.01 172.934Z" fill="#FFFDFD"/>
</svg>
