<svg width="24" height="25" viewBox="0 0 24 25" fill="none" xmlns="http://www.w3.org/2000/svg">
<path d="M23 3.64732C22.0424 4.3228 20.9821 4.83943 19.86 5.17732C19.2577 4.48483 18.4573 3.99402 17.567 3.77125C16.6767 3.54848 15.7395 3.60452 14.8821 3.93178C14.0247 4.25903 13.2884 4.84173 12.773 5.60104C12.2575 6.36036 11.9877 7.25966 12 8.17732V9.17732C10.2426 9.22289 8.50127 8.83314 6.93101 8.04277C5.36074 7.2524 4.01032 6.08596 3 4.64732C3 4.64732 -1 13.6473 8 17.6473C5.94053 19.0453 3.48716 19.7463 1 19.6473C10 24.6473 21 19.6473 21 8.14732C20.9991 7.86878 20.9723 7.59092 20.92 7.31732C21.9406 6.31082 22.6608 5.04004 23 3.64732Z" stroke="white" stroke-width="2" stroke-linecap="round" stroke-linejoin="round"/>
</svg>
